<svg xmlns="http://www.w3.org/2000/svg" xmlns:xlink="http://www.w3.org/1999/xlink" zoomAndPan="magnify" preserveAspectRatio="xMidYMid meet" version="1.0" viewBox="12.19 159.27 340.99 55.73"><defs><g/><clipPath id="489f21d29d"><path d="M 30 159.277344 L 71 159.277344 L 71 201 L 30 201 Z M 30 159.277344 " clip-rule="nonzero"/></clipPath><clipPath id="2f289151aa"><path d="M 12.191406 168 L 158.441406 168 L 158.441406 215 L 12.191406 215 Z M 12.191406 168 " clip-rule="nonzero"/></clipPath></defs><g clip-path="url(#489f21d29d)"><path fill="#008037" d="M 48.605469 200.800781 C 56.15625 194.9375 61.015625 186.429688 65.714844 178.199219 C 66.632812 176.597656 67.578125 174.9375 68.535156 173.320312 C 69.019531 172.5 69.539062 171.652344 70.128906 170.835938 C 66.707031 163.980469 59.621094 159.265625 51.429688 159.265625 C 39.898438 159.265625 30.550781 168.609375 30.550781 180.128906 C 30.550781 190.691406 38.410156 199.421875 48.605469 200.800781 " fill-opacity="1" fill-rule="nonzero"/></g><g clip-path="url(#2f289151aa)"><path fill="#ffffff" d="M 158.339844 213.488281 C 148.074219 215.515625 137.242188 215.148438 127.367188 211.679688 C 117.496094 208.214844 108.644531 201.542969 103.242188 192.589844 C 102.703125 191.699219 102.082031 190.699219 101.0625 190.480469 C 99.816406 190.210938 98.714844 191.238281 97.609375 191.875 C 94.621094 193.597656 90.644531 192.457031 88.101562 190.125 C 84.914062 187.195312 83.546875 182.933594 81.738281 179.128906 C 81.03125 177.636719 79.609375 175.253906 77.730469 176.71875 C 77.234375 177.109375 76.898438 177.660156 76.570312 178.199219 C 70.730469 187.832031 65.125 198.050781 55.988281 205.007812 C 49.910156 209.628906 42.617188 212.542969 35.09375 213.855469 C 27.570312 215.167969 19.820312 214.914062 12.296875 213.597656 C 25.527344 213.015625 39.335938 210.757812 49.832031 202.691406 C 59.335938 195.386719 64.523438 184.53125 70.46875 174.460938 C 71.84375 172.128906 73.449219 169.683594 75.988281 168.742188 C 78.820312 167.691406 82.09375 168.886719 84.308594 170.9375 C 88.15625 174.5 89.261719 179.5625 91.8125 183.921875 C 92.117188 184.441406 92.457031 184.949219 92.921875 185.335938 C 94.699219 186.820312 95.992188 184.820312 97.464844 183.972656 C 98.820312 183.199219 100.34375 182.652344 101.925781 182.886719 C 105.238281 183.378906 107.089844 186.828125 108.816406 189.699219 C 113.746094 197.90625 121.5625 204.191406 130.324219 208.066406 C 139.085938 211.941406 148.757812 213.503906 158.339844 213.488281 " fill-opacity="1" fill-rule="nonzero"/></g><g fill="#ffffff" fill-opacity="1"><g transform="translate(128.806343, 195.374987)"><g><path d="M 1.515625 -2.484375 L 5.09375 -12.84375 L 3.6875 -12.96875 L 3.6875 -14.78125 L 8.78125 -14.78125 L 13.3125 -1.953125 L 13.328125 -1.953125 L 14.59375 -1.890625 L 14.59375 0 L 8.859375 0 L 8.859375 -1.796875 L 9.703125 -1.859375 C 9.960938 -1.890625 10.132812 -1.945312 10.21875 -2.03125 C 10.3125 -2.125 10.320312 -2.289062 10.25 -2.53125 L 9.78125 -3.90625 L 4.578125 -3.90625 L 3.90625 -1.953125 L 5.25 -1.890625 L 5.25 0 L 0.109375 0 L 0.109375 -1.796875 L 0.84375 -1.859375 C 1.15625 -1.890625 1.378906 -2.097656 1.515625 -2.484375 Z M 7.171875 -12.28125 L 5.109375 -5.953125 L 9.25 -5.953125 L 7.25 -12.28125 Z M 7.171875 -12.28125 "/></g></g></g><g fill="#ffffff" fill-opacity="1"><g transform="translate(143.507434, 195.374987)"><g><path d="M 0.71875 0 L 0.71875 -1.796875 L 1.515625 -1.859375 C 1.898438 -1.890625 2.09375 -2.097656 2.09375 -2.484375 L 2.09375 -12.8125 L 0.828125 -12.890625 L 0.828125 -14.78125 L 4.828125 -14.78125 L 11.109375 -4.578125 L 11.15625 -4.578125 L 11.15625 -12.8125 L 9.6875 -12.890625 L 9.6875 -14.78125 L 15.109375 -14.78125 L 15.109375 -12.96875 L 14.3125 -12.90625 C 13.957031 -12.875 13.78125 -12.644531 13.78125 -12.21875 L 13.78125 0 L 11.171875 0 L 4.75 -10.359375 L 4.703125 -10.359375 L 4.703125 -1.953125 L 6.15625 -1.890625 L 6.15625 0 Z M 0.71875 0 "/></g></g></g><g fill="#ffffff" fill-opacity="1"><g transform="translate(159.163419, 195.374987)"><g><path d="M 0.75 0 L 0.75 -1.796875 L 1.484375 -1.859375 C 1.921875 -1.910156 2.140625 -2.117188 2.140625 -2.484375 L 2.140625 -12.8125 L 0.859375 -12.890625 L 0.859375 -14.78125 L 6.953125 -14.78125 C 9.128906 -14.78125 10.828125 -14.203125 12.046875 -13.046875 C 13.273438 -11.890625 13.890625 -10.175781 13.890625 -7.90625 C 13.890625 -6.5 13.703125 -5.273438 13.328125 -4.234375 C 12.960938 -3.191406 12.460938 -2.375 11.828125 -1.78125 C 10.546875 -0.59375 8.957031 0 7.0625 0 Z M 4.84375 -12.625 L 4.84375 -2.140625 L 7.109375 -2.140625 C 8.378906 -2.140625 9.367188 -2.597656 10.078125 -3.515625 C 10.796875 -4.429688 11.15625 -5.765625 11.15625 -7.515625 C 11.15625 -10.921875 9.710938 -12.625 6.828125 -12.625 Z M 4.84375 -12.625 "/></g></g></g><g fill="#ffffff" fill-opacity="1"><g transform="translate(173.931126, 195.374987)"><g><path d="M 0.71875 0 L 0.71875 -1.796875 L 1.4375 -1.859375 C 1.875 -1.910156 2.09375 -2.117188 2.09375 -2.484375 L 2.09375 -12.8125 L 0.828125 -12.890625 L 0.828125 -14.78125 L 6.890625 -14.78125 C 8.609375 -14.78125 9.925781 -14.457031 10.84375 -13.8125 C 11.757812 -13.175781 12.21875 -12.132812 12.21875 -10.6875 C 12.21875 -9.675781 11.953125 -8.84375 11.421875 -8.1875 C 10.898438 -7.539062 10.273438 -7.070312 9.546875 -6.78125 C 10.085938 -6.582031 10.515625 -6.128906 10.828125 -5.421875 L 12.421875 -1.9375 L 13.6875 -1.890625 L 13.6875 0 L 8.203125 0 L 8.203125 -1.796875 L 8.84375 -1.859375 C 9.1875 -1.910156 9.359375 -2.046875 9.359375 -2.265625 C 9.359375 -2.359375 9.328125 -2.460938 9.265625 -2.578125 L 8.21875 -4.796875 C 8.050781 -5.171875 7.867188 -5.4375 7.671875 -5.59375 C 7.472656 -5.75 7.191406 -5.828125 6.828125 -5.828125 L 4.796875 -5.828125 L 4.796875 -1.953125 L 6.25 -1.890625 L 6.25 0 Z M 4.796875 -7.9375 L 6.734375 -7.9375 C 8.554688 -7.9375 9.46875 -8.75 9.46875 -10.375 C 9.46875 -11.3125 9.222656 -11.921875 8.734375 -12.203125 C 8.253906 -12.484375 7.484375 -12.625 6.421875 -12.625 L 4.796875 -12.625 Z M 4.796875 -7.9375 "/></g></g></g><g fill="#ffffff" fill-opacity="1"><g transform="translate(187.832755, 195.374987)"><g><path d="M 11.3125 0 L 0.75 0 L 0.75 -1.796875 L 1.484375 -1.859375 C 1.921875 -1.910156 2.140625 -2.117188 2.140625 -2.484375 L 2.140625 -12.8125 L 0.859375 -12.890625 L 0.859375 -14.78125 L 11.046875 -14.78125 L 11.046875 -11.09375 L 8.78125 -10.9375 L 8.78125 -11.828125 C 8.78125 -12.078125 8.738281 -12.253906 8.65625 -12.359375 C 8.582031 -12.460938 8.40625 -12.515625 8.125 -12.515625 L 4.84375 -12.515625 L 4.84375 -8.703125 L 9.96875 -8.703125 L 9.96875 -6.4375 L 4.84375 -6.4375 L 4.84375 -2.28125 L 8.421875 -2.28125 C 8.691406 -2.28125 8.863281 -2.335938 8.9375 -2.453125 C 9.007812 -2.566406 9.046875 -2.75 9.046875 -3 L 9.046875 -4.109375 L 11.3125 -3.953125 Z M 11.3125 0 "/></g></g></g><g fill="#ffffff" fill-opacity="1"><g transform="translate(200.024443, 195.374987)"><g><path d="M 1.515625 -2.484375 L 5.09375 -12.84375 L 3.6875 -12.96875 L 3.6875 -14.78125 L 8.78125 -14.78125 L 13.3125 -1.953125 L 13.328125 -1.953125 L 14.59375 -1.890625 L 14.59375 0 L 8.859375 0 L 8.859375 -1.796875 L 9.703125 -1.859375 C 9.960938 -1.890625 10.132812 -1.945312 10.21875 -2.03125 C 10.3125 -2.125 10.320312 -2.289062 10.25 -2.53125 L 9.78125 -3.90625 L 4.578125 -3.90625 L 3.90625 -1.953125 L 5.25 -1.890625 L 5.25 0 L 0.109375 0 L 0.109375 -1.796875 L 0.84375 -1.859375 C 1.15625 -1.890625 1.378906 -2.097656 1.515625 -2.484375 Z M 7.171875 -12.28125 L 5.109375 -5.953125 L 9.25 -5.953125 L 7.25 -12.28125 Z M 7.171875 -12.28125 "/></g></g></g><g fill="#ffffff" fill-opacity="1"><g transform="translate(214.725534, 195.374987)"><g/></g></g><g fill="#008037" fill-opacity="1"><g transform="translate(219.157899, 195.374987)"><g><path d="M 5.515625 -14.78125 L 9.28125 -4.734375 L 9.328125 -4.734375 L 13.125 -14.78125 L 17.53125 -14.78125 L 17.53125 -12.96875 L 16.796875 -12.90625 C 16.347656 -12.863281 16.132812 -12.601562 16.15625 -12.125 L 16.703125 -1.953125 L 18.09375 -1.890625 L 18.09375 0 L 12.734375 0 L 12.734375 -1.796875 L 13.53125 -1.859375 C 13.925781 -1.890625 14.117188 -2.082031 14.109375 -2.4375 L 13.6875 -10.28125 L 13.640625 -10.28125 L 10.21875 -1.421875 L 8.109375 -1.421875 L 4.734375 -10.203125 L 4.6875 -10.203125 L 4.25 -1.953125 L 5.6875 -1.890625 L 5.6875 0 L 0.4375 0 L 0.4375 -1.796875 L 1.25 -1.859375 C 1.582031 -1.890625 1.765625 -2.09375 1.796875 -2.46875 L 2.40625 -12.796875 L 1.046875 -12.890625 L 1.046875 -14.78125 Z M 5.515625 -14.78125 "/></g></g></g><g fill="#008037" fill-opacity="1"><g transform="translate(237.678604, 195.374987)"><g><path d="M 7.671875 -15.046875 C 9.429688 -15.046875 10.898438 -14.421875 12.078125 -13.171875 C 13.265625 -11.929688 13.859375 -10.03125 13.859375 -7.46875 C 13.859375 -4.914062 13.269531 -2.984375 12.09375 -1.671875 C 10.914062 -0.367188 9.320312 0.28125 7.3125 0.28125 C 5.3125 0.28125 3.738281 -0.367188 2.59375 -1.671875 C 1.457031 -2.972656 0.890625 -4.867188 0.890625 -7.359375 C 0.890625 -8.722656 1.085938 -9.914062 1.484375 -10.9375 C 1.890625 -11.96875 2.414062 -12.765625 3.0625 -13.328125 C 4.382812 -14.472656 5.921875 -15.046875 7.671875 -15.046875 Z M 3.671875 -7.46875 C 3.671875 -3.789062 4.941406 -1.953125 7.484375 -1.953125 C 8.847656 -1.953125 9.804688 -2.515625 10.359375 -3.640625 C 10.859375 -4.628906 11.109375 -5.84375 11.109375 -7.28125 C 11.109375 -8.570312 10.882812 -9.757812 10.4375 -10.84375 C 10.1875 -11.4375 9.804688 -11.898438 9.296875 -12.234375 C 8.785156 -12.578125 8.125 -12.75 7.3125 -12.75 C 6.5 -12.75 5.796875 -12.484375 5.203125 -11.953125 C 4.617188 -11.421875 4.21875 -10.773438 4 -10.015625 C 3.78125 -9.265625 3.671875 -8.414062 3.671875 -7.46875 Z M 3.671875 -7.46875 "/></g></g></g><g fill="#008037" fill-opacity="1"><g transform="translate(252.424109, 195.374987)"><g><path d="M 0.71875 0 L 0.71875 -1.796875 L 1.515625 -1.859375 C 1.898438 -1.890625 2.09375 -2.097656 2.09375 -2.484375 L 2.09375 -12.8125 L 0.828125 -12.890625 L 0.828125 -14.78125 L 4.828125 -14.78125 L 11.109375 -4.578125 L 11.15625 -4.578125 L 11.15625 -12.8125 L 9.6875 -12.890625 L 9.6875 -14.78125 L 15.109375 -14.78125 L 15.109375 -12.96875 L 14.3125 -12.90625 C 13.957031 -12.875 13.78125 -12.644531 13.78125 -12.21875 L 13.78125 0 L 11.171875 0 L 4.75 -10.359375 L 4.703125 -10.359375 L 4.703125 -1.953125 L 6.15625 -1.890625 L 6.15625 0 Z M 0.71875 0 "/></g></g></g><g fill="#008037" fill-opacity="1"><g transform="translate(268.080095, 195.374987)"><g><path d="M 4.84375 -2.484375 L 4.84375 -12.578125 L 3.109375 -12.578125 C 2.765625 -12.578125 2.59375 -12.347656 2.59375 -11.890625 L 2.59375 -10.84375 L 0.328125 -11 L 0.328125 -14.78125 L 11.953125 -14.78125 L 11.953125 -11 L 9.6875 -10.84375 L 9.6875 -11.890625 C 9.6875 -12.140625 9.648438 -12.316406 9.578125 -12.421875 C 9.503906 -12.523438 9.328125 -12.578125 9.046875 -12.578125 L 7.53125 -12.578125 L 7.53125 -1.953125 L 9.28125 -1.890625 L 9.28125 0 L 3.015625 0 L 3.015625 -1.796875 L 4.203125 -1.859375 C 4.628906 -1.910156 4.84375 -2.117188 4.84375 -2.484375 Z M 4.84375 -2.484375 "/></g></g></g><g fill="#008037" fill-opacity="1"><g transform="translate(280.360612, 195.374987)"><g><path d="M 1.515625 -2.484375 L 5.09375 -12.84375 L 3.6875 -12.96875 L 3.6875 -14.78125 L 8.78125 -14.78125 L 13.3125 -1.953125 L 13.328125 -1.953125 L 14.59375 -1.890625 L 14.59375 0 L 8.859375 0 L 8.859375 -1.796875 L 9.703125 -1.859375 C 9.960938 -1.890625 10.132812 -1.945312 10.21875 -2.03125 C 10.3125 -2.125 10.320312 -2.289062 10.25 -2.53125 L 9.78125 -3.90625 L 4.578125 -3.90625 L 3.90625 -1.953125 L 5.25 -1.890625 L 5.25 0 L 0.109375 0 L 0.109375 -1.796875 L 0.84375 -1.859375 C 1.15625 -1.890625 1.378906 -2.097656 1.515625 -2.484375 Z M 7.171875 -12.28125 L 5.109375 -5.953125 L 9.25 -5.953125 L 7.25 -12.28125 Z M 7.171875 -12.28125 "/></g></g></g><g fill="#008037" fill-opacity="1"><g transform="translate(295.061703, 195.374987)"><g><path d="M 0.71875 0 L 0.71875 -1.796875 L 1.515625 -1.859375 C 1.898438 -1.890625 2.09375 -2.097656 2.09375 -2.484375 L 2.09375 -12.8125 L 0.828125 -12.890625 L 0.828125 -14.78125 L 4.828125 -14.78125 L 11.109375 -4.578125 L 11.15625 -4.578125 L 11.15625 -12.8125 L 9.6875 -12.890625 L 9.6875 -14.78125 L 15.109375 -14.78125 L 15.109375 -12.96875 L 14.3125 -12.90625 C 13.957031 -12.875 13.78125 -12.644531 13.78125 -12.21875 L 13.78125 0 L 11.171875 0 L 4.75 -10.359375 L 4.703125 -10.359375 L 4.703125 -1.953125 L 6.15625 -1.890625 L 6.15625 0 Z M 0.71875 0 "/></g></g></g><g fill="#008037" fill-opacity="1"><g transform="translate(310.717689, 195.374987)"><g><path d="M 1.515625 -2.484375 L 5.09375 -12.84375 L 3.6875 -12.96875 L 3.6875 -14.78125 L 8.78125 -14.78125 L 13.3125 -1.953125 L 13.328125 -1.953125 L 14.59375 -1.890625 L 14.59375 0 L 8.859375 0 L 8.859375 -1.796875 L 9.703125 -1.859375 C 9.960938 -1.890625 10.132812 -1.945312 10.21875 -2.03125 C 10.3125 -2.125 10.320312 -2.289062 10.25 -2.53125 L 9.78125 -3.90625 L 4.578125 -3.90625 L 3.90625 -1.953125 L 5.25 -1.890625 L 5.25 0 L 0.109375 0 L 0.109375 -1.796875 L 0.84375 -1.859375 C 1.15625 -1.890625 1.378906 -2.097656 1.515625 -2.484375 Z M 7.171875 -12.28125 L 5.109375 -5.953125 L 9.25 -5.953125 L 7.25 -12.28125 Z M 7.171875 -12.28125 "/></g></g></g><g fill="#008037" fill-opacity="1"><g transform="translate(325.41878, 195.374987)"><g><path d="M 0.71875 0 L 0.71875 -1.796875 L 1.4375 -1.859375 C 1.875 -1.910156 2.09375 -2.117188 2.09375 -2.484375 L 2.09375 -12.8125 L 0.828125 -12.890625 L 0.828125 -14.78125 L 6.890625 -14.78125 C 8.609375 -14.78125 9.925781 -14.457031 10.84375 -13.8125 C 11.757812 -13.175781 12.21875 -12.132812 12.21875 -10.6875 C 12.21875 -9.675781 11.953125 -8.84375 11.421875 -8.1875 C 10.898438 -7.539062 10.273438 -7.070312 9.546875 -6.78125 C 10.085938 -6.582031 10.515625 -6.128906 10.828125 -5.421875 L 12.421875 -1.9375 L 13.6875 -1.890625 L 13.6875 0 L 8.203125 0 L 8.203125 -1.796875 L 8.84375 -1.859375 C 9.1875 -1.910156 9.359375 -2.046875 9.359375 -2.265625 C 9.359375 -2.359375 9.328125 -2.460938 9.265625 -2.578125 L 8.21875 -4.796875 C 8.050781 -5.171875 7.867188 -5.4375 7.671875 -5.59375 C 7.472656 -5.75 7.191406 -5.828125 6.828125 -5.828125 L 4.796875 -5.828125 L 4.796875 -1.953125 L 6.25 -1.890625 L 6.25 0 Z M 4.796875 -7.9375 L 6.734375 -7.9375 C 8.554688 -7.9375 9.46875 -8.75 9.46875 -10.375 C 9.46875 -11.3125 9.222656 -11.921875 8.734375 -12.203125 C 8.253906 -12.484375 7.484375 -12.625 6.421875 -12.625 L 4.796875 -12.625 Z M 4.796875 -7.9375 "/></g></g></g><g fill="#008037" fill-opacity="1"><g transform="translate(339.320409, 195.374987)"><g><path d="M 7.671875 -15.046875 C 9.429688 -15.046875 10.898438 -14.421875 12.078125 -13.171875 C 13.265625 -11.929688 13.859375 -10.03125 13.859375 -7.46875 C 13.859375 -4.914062 13.269531 -2.984375 12.09375 -1.671875 C 10.914062 -0.367188 9.320312 0.28125 7.3125 0.28125 C 5.3125 0.28125 3.738281 -0.367188 2.59375 -1.671875 C 1.457031 -2.972656 0.890625 -4.867188 0.890625 -7.359375 C 0.890625 -8.722656 1.085938 -9.914062 1.484375 -10.9375 C 1.890625 -11.96875 2.414062 -12.765625 3.0625 -13.328125 C 4.382812 -14.472656 5.921875 -15.046875 7.671875 -15.046875 Z M 3.671875 -7.46875 C 3.671875 -3.789062 4.941406 -1.953125 7.484375 -1.953125 C 8.847656 -1.953125 9.804688 -2.515625 10.359375 -3.640625 C 10.859375 -4.628906 11.109375 -5.84375 11.109375 -7.28125 C 11.109375 -8.570312 10.882812 -9.757812 10.4375 -10.84375 C 10.1875 -11.4375 9.804688 -11.898438 9.296875 -12.234375 C 8.785156 -12.578125 8.125 -12.75 7.3125 -12.75 C 6.5 -12.75 5.796875 -12.484375 5.203125 -11.953125 C 4.617188 -11.421875 4.21875 -10.773438 4 -10.015625 C 3.78125 -9.265625 3.671875 -8.414062 3.671875 -7.46875 Z M 3.671875 -7.46875 "/></g></g></g></svg>