<svg xmlns="http://www.w3.org/2000/svg" version="1.1" xmlns:xlink="http://www.w3.org/1999/xlink" xmlns:svgjs="http://svgjs.com/svgjs" width="1920" height="1080" preserveAspectRatio="none" viewBox="0 0 1920 1080"><g mask="url(&quot;#SvgjsMask1209&quot;)" fill="none"><rect width="1920" height="1080" x="0" y="0" fill="rgba(7, 38, 115, 1)"></rect><path d="M1920 0L1280.8 0L1920 396.99z" fill="rgba(255, 255, 255, .1)"></path><path d="M1280.8 0L1920 396.99L1920 657.8199999999999L1184.74 0z" fill="rgba(255, 255, 255, .075)"></path><path d="M1184.74 0L1920 657.8199999999999L1920 793.9L601.17 0z" fill="rgba(255, 255, 255, .05)"></path><path d="M601.1700000000001 0L1920 793.9L1920 872.27L203.73000000000008 0z" fill="rgba(255, 255, 255, .025)"></path><path d="M0 1080L677.79 1080L0 704.1700000000001z" fill="rgba(0, 0, 0, .1)"></path><path d="M0 704.1700000000001L677.79 1080L831.14 1080L0 613.8800000000001z" fill="rgba(0, 0, 0, .075)"></path><path d="M0 613.88L831.14 1080L911.85 1080L0 406.58z" fill="rgba(0, 0, 0, .05)"></path><path d="M0 406.5799999999999L911.85 1080L1015.4300000000001 1080L0 306.3599999999999z" fill="rgba(0, 0, 0, .025)"></path></g><defs><mask id="SvgjsMask1209"><rect width="1920" height="1080" fill="#ffffff"></rect></mask></defs></svg>